PathFileType	4	(X/Y/Z)	30_2_26_p1_0-498_filt_butterworth.trc
DataRate	CameraRate	NumFrames	NumMarkers	Units	OrigDataRate	OrigDataStartFrame	OrigNumFrames
59.0	59.0	4	27	m	59.0	0	498
Frame#	Time	RHip			RKnee			RAnkle			RBigToe			RSmallToe			RHeel			LHip			LKnee			LAnkle			LBigToe			LSmallToe			LHeel			Neck			Head			Nose			RShoulder			RElbow			RWrist			RThumb			RIndex			RPinky			LShoulder			LElbow			LWrist			LThumb			LIndex			LPinky			
		X1	Y1	Z1	X2	Y2	Z2	X3	Y3	Z3	X4	Y4	Z4	X5	Y5	Z5	X6	Y6	Z6	X7	Y7	Z7	X8	Y8	Z8	X9	Y9	Z9	X10	Y10	Z10	X11	Y11	Z11	X12	Y12	Z12	X13	Y13	Z13	X14	Y14	Z14	X15	Y15	Z15	X16	Y16	Z16	X17	Y17	Z17	X18	Y18	Z18	X19	Y19	Z19	X20	Y20	Z20	X21	Y21	Z21	X22	Y22	Z22	X23	Y23	Z23	X24	Y24	Z24	X25	Y25	Z25	X26	Y26	Z26	X27	Y27	Z27	
0	0.0	0.2608560019301618	1.053853298016465	0.48320586123722664	0.25921353914292244	0.5992270481609087	0.47357719821403194	0.2575285459906969	0.12140575815070799	0.5464999141634466	0.2257128200360113	0.1919136081211017	0.2709724462512518	0.28496518920781694	0.16721334014327974	0.32215320267000125	0.2628373425088132	0.030476235874260287	0.6375348965504725	0.04860947784708737	1.050013275603563	0.49384531017427596	0.06802465420644117	0.57739420873725	0.5150117783789451	0.08179306921045314	0.12184074119258237	0.5416786873792067	0.09400894854707238	0.17282822279900525	0.3057198156729476	0.06512857689450861	0.16047879519862068	0.331695572419678	0.10705466065591115	0.03536267804841996	0.6205310496781474	0.14208360107822618	1.6998345508275148	0.5031257704999916	0.1348106228076846	1.9323704664723933	0.5065058975777946	0.1480077388816094	1.8177090744893714	0.4151483761635666	0.3298938878538505	1.5801041557080624	0.5010768684829574	0.3445128405315965	1.409448152234123	0.30363215338874183	0.20066736294105147	1.3696729136966055	0.10072696742024845	0.08319336613026268	1.3803975271896103	0.14059674809198205	0.10147605318091305	1.3650301949283532	-0.003263085955052	0.12874213667438725	1.3156143755753966	-0.0022007233217335356	-0.022808076862914906	1.5919124548444135	0.47597430292854503	-0.04975817810442314	1.4032992925317165	0.3096935361125455	0.07470222821188939	1.3509967149748987	0.10061690608778101	0.11504330730325307	1.354107024787342	0.014823200417320107	0.13645924046020846	1.324103771517654	-0.00863210413160409	0.1256497652770175	1.2866706872156903	0.03849544161048573	
1	0.0169491525423728	0.26025168491439676	1.056959733347121	0.47657056076504806	0.2577712637270374	0.6022490052698423	0.4699565024540403	0.2580051199832572	0.12286773631597497	0.5442611895930375	0.22771306368095803	0.19294034700132914	0.27227637927948967	0.2864764081527183	0.1707359868963666	0.31676689398939306	0.2623842280262804	0.02936257236815451	0.6392344002109598	0.047294517676971286	1.0499523985369923	0.49668629961983346	0.06816737193863578	0.5785795804387267	0.5151271547409857	0.08236237864755754	0.12024086082780844	0.5448689066272583	0.09848054797280352	0.1759907894860299	0.30090695211035107	0.06512582310969267	0.15999520712175108	0.33127048410125287	0.10711460689934434	0.03659862736502842	0.6205701486598562	0.14217139281874264	1.698652160693022	0.5032687085473626	0.13531606813077518	1.9324273187646066	0.5047162762009748	0.14710970513486754	1.817779058298455	0.41349298356649994	0.33092232357637785	1.5807643889435237	0.4965736841674812	0.3408569523974044	1.408161443739189	0.3057645178302538	0.20179601637193706	1.367605538263287	0.10438039908525372	0.06640384927125227	1.374256207980874	0.2123901363002096	0.0998439456232184	1.3662495521423745	-0.008281430675321904	0.1246373744770262	1.3109384680074487	0.012456808483010014	-0.022994533430243765	1.593844065243088	0.4754757726485319	-0.04933919967194564	1.4032373165719807	0.310764130863903	0.07576074007302709	1.349913071445436	0.10509214492861171	0.11390605771298781	1.3589476090579675	0.014434326576132132	0.13801935298375298	1.3234939964705652	-0.008383885206946011	0.12855831384304248	1.2880131099349343	0.037631164602625326	
2	0.0338983050847457	0.2597653143173654	1.059538777617732	0.47098047450898906	0.25663743677001966	0.6046344282573268	0.46714150798219395	0.2583319874471159	0.12388477495880618	0.5427249336938564	0.22892544178617388	0.1942790610973247	0.2724674693480548	0.2877703921900923	0.17233420137190253	0.3143846506234615	0.26199554759475474	0.028568625914171197	0.6405977926389409	0.046202247848379466	1.049897480675972	0.49909692908101405	0.06827822321875378	0.5796244552240161	0.5152494202906565	0.08283083606521813	0.11888053632256768	0.5475652918923688	0.10105172800166161	0.17743648156425035	0.2987047532993385	0.06519848967894568	0.15919424875737753	0.3307353660486395	0.10719201583443098	0.037689433376683734	0.6206538059014762	0.14223362811684312	1.697769929839124	0.5033811924330945	0.1354955374080435	1.932456224299523	0.5040521466368701	0.1461207013537574	1.817762078966216	0.41275170170631276	0.33171121995164016	1.5812316135786446	0.4931222734909485	0.33810133764619593	1.4073556074290783	0.30685522406771454	0.20201416865588365	1.3670035333170536	0.10505976700799763	0.059176982255523924	1.375230835427347	0.22860176665991483	0.0984626428042668	1.3670107454984821	-0.010769502323304786	0.12097681401676487	1.3088836889738276	0.02049824162492705	-0.02310664618677242	1.5948652269424717	0.4752569244720994	-0.0487987958527483	1.4035676305207345	0.3125559144415087	0.07651155873347962	1.3488804305138549	0.10956202110217513	0.11256293759488453	1.3618883051205461	0.01443788673685046	0.1389940552805738	1.323523051009784	-0.009380992877432423	0.13034592654945013	1.2882844349718785	0.03730552167918286	
3	0.0508474576271186	0.2593849515758025	1.0616301846462315	0.4663672902881713	0.2557868770776058	0.6064389112554726	0.4650655227552534	0.25852353448676096	0.12449889388879934	0.5418239999309125	0.22952813719048207	0.19565406527712736	0.27196307396954195	0.2888592048630315	0.17239210807328598	0.3143990027752971	0.26166791647515947	0.028065040847827558	0.641650914043395	0.045317643391659834	1.049847896450197	0.5011100652759619	0.06836003755067867	0.5805372266483515	0.5153771621512818	0.08320493348459151	0.11774366255283648	0.5497973078665646	0.10211234671206657	0.17753333137311725	0.29854712923363563	0.06530328026966618	0.15820275755852575	0.3302111019047985	0.10728446880327167	0.03864319850326575	0.6207761976969651	0.14227502756964894	1.697144324648184	0.5034663648830574	0.1354288713836785	1.9324629344265274	0.5042450119194496	0.1450832895433349	1.8176806215344805	0.4127841564368669	0.3322889882761395	1.5815378925361894	0.4905991553859401	0.33612375738414485	1.4069432123915426	0.3071377225985449	0.20150275831626266	1.367552754993389	0.10345082361735533	0.05918559620456732	1.3813245316821268	0.2035298139235952	0.09730558083422734	1.3674273457065338	-0.011349023047954208	0.11783089566003219	1.3089227910369754	0.023140369311713968	-0.023156387635473518	1.5951553976238588	0.47525241783597255	-0.048191150783188696	1.4041609947196187	0.31479783298022684	0.07700507298037602	1.347929271354863	0.11383408904542944	0.11103428349570368	1.3632636014816453	0.01492072317497024	0.1394961056348657	1.3239994156053385	-0.011190899087737925	0.13126544418851133	1.2876917658884497	0.03737768976725925	
